{"title":"Penthouse.Fuck.A.Cop.XXX.720p.WEBRiP.WMV-TBP","uid":11729715,"size":6166166508,"categoryP":"porn","categoryS":"movies","magnet":"?xt=urn:btih:5d6993b04b4553f2fe69cfb9d361f20f4a9ab2c2&amp;dn=Penthouse.Fuck.A.Cop.XXX.720p.WEBRiP.WMV-TBP&amp;tr=udp%3A%2F%2Ftracker.openbittorrent.com%3A80&amp;tr=udp%3A%2F%2Fopen.demonii.com%3A1337&amp;tr=udp%3A%2F%2Ftracker.coppersurfer.tk%3A6969&amp;tr=udp%3A%2F%2Fexodus.desync.com%3A6969","seeders":0,"leechers":7,"uploader":"sceneline","files":65,"time":1425243355,"description":" &lt;a href=&quot;https://www.scenetime&quot; rel=&quot;nofollow&quot; target=&quot;_NEW&quot;&gt;https://www.scenetime&lt;/a&gt; dot com\n\nSign up is OPEN - for time being. Come and have fun.\n\nplease seed back as long as possible.\n\nfor info read NFO file\n\n================== NFO====================\n                  THE.BEST.PORN.GIVES \n\n\nPenthouse.Fuck.A.Cop.XXX.720p.WEBRiP.WMV-TBP \n\nWEBSITE     : http://www.data18.com/search/?t=0&amp;k=fuck+a+cop&amp;ref=1\nTYPE        : WMV \nSIZE        : 61 x 100MB \n\nContent:\nPlease note: These results are based on original title from updates. Provided by site owner.\nFuck A Cop 5: Calendar Of Cadets\nFuck A Cop 4: Delicate Handling\nFuck A Cop 3: Fun But Worthless\nFuck A Cop 2: Everybody's Fucking Innocent\nFuck A Cop 1: City Property, Private Use\n\nGeneral\nComplete name                            : tbp.pfacop.wmv\nFormat                                   : Windows Media\nFile size                                : 5.67 GiB\nDuration                                 : 1h 40mn\nOverall bit rate                         : 8 108 Kbps\nMaximum Overall bit rate                 : 32.0 Kbps\nEncoded date                             : UTC 1970-01-01 00:00:00.000\nWM/EncodingSettings                      : Lavf56.4.101\n\nVideo\nID                                       : 1\nFormat                                   : WMV2\nCodec ID                                 : WMV2\nCodec ID/Info                            : Windows Media Video 8\nDescription of the codec                 : wmv2\nDuration                                 : 1h 40mn\nBit rate                                 : 7 746 Kbps\nWidth                                    : 1 280 pixels\nHeight                                   : 720 pixels\nDisplay aspect ratio                     : 16:9\nFrame rate                               : 29.970 fps\nBit depth                                : 8 bits\nBits/(Pixel*Frame)                       : 0.280\nStream size                              : 5.41 GiB (96%)\n\nAudio\nID                                       : 2\nFormat                                   : WMA\nFormat version                           : Version 2\nCodec ID                                 : 161\nCodec ID/Info                            : Windows Media Audio\nDescription of the codec                 : Windows Media Audio V8\nDuration                                 : 1h 40mn\nBit rate                                 : 32.0 Kbps\nChannel(s)                               : 1 channel\nSampling rate                            : 48.0 KHz\nBit depth                                : 16 bits\nStream size                              : 22.9 MiB (0%)\n\n\nREVIEW-URL  :  \n\n  Greetz to our good friends in GUSH \n   And the others which make this fun","torrent":{"xt":"urn:btih:5d6993b04b4553f2fe69cfb9d361f20f4a9ab2c2","amp;dn":"Penthouse.Fuck.A.Cop.XXX.720p.WEBRiP.WMV-TBP","amp;tr":["udp%3A%2F%2Ftracker.openbittorrent.com%3A80","udp%3A%2F%2Fopen.demonii.com%3A1337","udp%3A%2F%2Ftracker.coppersurfer.tk%3A6969","udp%3A%2F%2Fexodus.desync.com%3A6969"],"infoHash":"5d6993b04b4553f2fe69cfb9d361f20f4a9ab2c2","infoHashBuffer":{"type":"Buffer","data":[93,105,147,176,75,69,83,242,254,105,207,185,211,97,242,15,74,154,178,194]},"announce":[],"urlList":[]}}